<?xml version="1.0" standalone="no"?>
<!DOCTYPE svg PUBLIC "-//W3C//DTD SVG 20010904//EN"
 "http://www.w3.org/TR/2001/REC-SVG-20010904/DTD/svg10.dtd">
<svg version="1.0" xmlns="http://www.w3.org/2000/svg"
 width="512.000000pt" height="512.000000pt" viewBox="0 0 512.000000 512.000000"
 preserveAspectRatio="xMidYMid meet">

<g transform="translate(0.000000,512.000000) scale(0.100000,-0.100000)"
fill="#000000" stroke="none">
<path d="M1937 3825 c-127 -32 -256 -124 -314 -222 -18 -31 -31 -43 -42 -39
-9 3 -53 18 -97 35 -266 97 -546 90 -811 -22 -250 -105 -484 -341 -584 -589
-125 -306 -113 -633 35 -927 157 -312 453 -529 803 -591 79 -14 292 -14 361
-1 90 18 175 42 234 67 32 13 62 24 67 24 5 0 19 -17 32 -37 85 -143 250 -233
428 -234 261 -1 468 182 503 443 8 64 16 89 27 93 9 2 570 151 1246 330 677
179 1240 330 1252 336 33 18 48 62 33 99 -7 17 -21 35 -31 41 -14 7 -2499 669
-2513 669 -2 0 -7 30 -11 68 -22 212 -153 378 -350 445 -70 24 -197 30 -268
12z m261 -189 c70 -35 128 -95 160 -165 23 -47 27 -70 27 -142 0 -79 -3 -92
-35 -154 -25 -50 -50 -80 -87 -110 -57 -45 -78 -82 -68 -117 4 -13 35 -52 69
-89 97 -102 132 -194 124 -328 -6 -104 -46 -190 -128 -275 -37 -39 -62 -74
-66 -94 -6 -30 -1 -37 70 -106 100 -97 120 -141 121 -261 0 -77 -4 -98 -26
-145 -33 -70 -95 -132 -167 -167 -49 -24 -69 -28 -142 -28 -72 0 -93 4 -140
27 -80 39 -137 99 -175 182 -52 114 -78 124 -177 71 -377 -199 -831 -129
-1121 174 -90 95 -128 149 -178 256 -67 142 -82 217 -82 395 -1 179 16 257 83
399 98 204 247 353 451 451 140 67 219 83 399 83 183 0 255 -16 409 -89 98
-47 140 -55 168 -32 9 7 29 41 44 76 49 109 102 161 205 203 71 28 190 21 262
-15z m1420 -786 c589 -156 1072 -286 1072 -289 0 -3 -487 -135 -1083 -292
l-1082 -286 -27 48 c-14 27 -40 67 -58 89 l-32 40 48 71 c135 204 131 485 -11
679 -19 26 -35 51 -35 55 0 4 15 25 34 46 18 22 44 60 57 85 13 24 29 43 34
41 6 -2 493 -131 1083 -287z"/>
<path d="M1013 3319 c-191 -22 -383 -132 -502 -286 -100 -129 -161 -296 -161
-439 0 -66 2 -74 26 -93 35 -28 79 -27 108 2 18 18 24 39 30 99 14 155 70 274
180 383 108 106 211 153 381 174 63 8 84 14 97 31 21 26 23 78 4 102 -13 18
-59 39 -79 37 -7 -1 -44 -5 -84 -10z"/>
<path d="M1607 3228 c-9 -7 -21 -26 -27 -42 -9 -24 -6 -38 15 -83 l24 -54 -62
-59 c-70 -65 -118 -138 -155 -238 -22 -58 -26 -84 -26 -187 -1 -92 3 -133 18
-175 34 -100 79 -173 153 -248 l73 -73 -20 -39 c-35 -68 -23 -120 30 -139 37
-13 72 -1 94 31 9 13 37 51 61 84 67 92 61 132 -27 182 -70 39 -147 122 -183
197 -27 56 -30 69 -30 175 0 110 1 118 33 182 39 81 107 153 181 193 83 46 92
91 32 169 -21 28 -46 65 -55 83 -9 18 -25 37 -35 43 -27 14 -74 13 -94 -2z"/>
</g>
</svg>
