<?xml version="1.0" standalone="no"?>
<!DOCTYPE svg PUBLIC "-//W3C//DTD SVG 20010904//EN"
 "http://www.w3.org/TR/2001/REC-SVG-20010904/DTD/svg10.dtd">
<svg version="1.0" xmlns="http://www.w3.org/2000/svg"
 width="512.000000pt" height="512.000000pt" viewBox="0 0 512.000000 512.000000"
 preserveAspectRatio="xMidYMid meet">

<g transform="translate(0.000000,512.000000) scale(0.100000,-0.100000)"
fill="#000000" stroke="none">
<path d="M2993 3828 c-222 -32 -394 -210 -425 -440 -8 -64 -16 -89 -27 -93 -9
-2 -569 -151 -1246 -330 -676 -179 -1240 -330 -1252 -336 -33 -18 -48 -62 -33
-99 7 -17 21 -35 31 -41 14 -7 2499 -669 2513 -669 2 0 7 -30 11 -67 14 -134
62 -237 152 -325 196 -190 495 -194 695 -9 33 30 71 74 85 98 18 31 31 43 42
39 9 -3 53 -18 97 -35 266 -97 546 -90 811 22 250 105 484 341 584 589 125
306 113 633 -35 927 -157 312 -453 529 -803 591 -79 14 -292 14 -361 1 -90
-18 -175 -42 -234 -67 -32 -13 -62 -24 -67 -24 -6 0 -22 20 -36 44 -48 81
-153 165 -255 202 -58 20 -180 31 -247 22z m219 -191 c77 -38 135 -99 173
-181 52 -114 78 -124 177 -71 377 199 831 129 1121 -174 90 -95 128 -149 178
-256 67 -142 82 -217 82 -395 1 -179 -16 -257 -83 -399 -98 -204 -247 -353
-451 -451 -140 -67 -219 -83 -399 -83 -183 0 -255 16 -409 89 -98 47 -140 55
-168 32 -9 -7 -30 -45 -48 -84 -40 -86 -97 -146 -174 -183 -48 -22 -69 -26
-146 -25 -78 0 -97 4 -143 27 -70 37 -128 96 -160 166 -23 47 -27 70 -27 142
0 79 3 92 35 154 25 50 50 80 87 110 57 45 78 82 68 117 -4 13 -35 52 -69 89
-97 102 -132 194 -124 328 6 104 46 190 128 275 37 39 62 74 66 94 6 30 1 37
-70 106 -100 98 -120 141 -121 261 0 98 19 156 71 218 101 120 272 160 406 94z
m-532 -637 l32 -40 -48 -71 c-135 -204 -131 -485 11 -679 19 -26 35 -51 35
-55 0 -4 -15 -25 -34 -46 -18 -22 -44 -60 -57 -85 -13 -24 -28 -43 -34 -41 -5
2 -493 131 -1082 287 -590 156 -1073 286 -1073 289 0 3 487 135 1083 292
l1082 286 27 -48 c14 -27 40 -67 58 -89z"/>
<path d="M3433 3230 c-11 -5 -28 -19 -37 -32 -9 -13 -37 -51 -61 -84 -67 -92
-61 -132 27 -182 70 -39 147 -122 183 -197 27 -56 30 -69 30 -175 0 -110 -1
-118 -33 -182 -39 -81 -107 -153 -181 -193 -83 -46 -92 -91 -32 -169 21 -28
46 -65 55 -83 36 -72 130 -73 155 -2 9 27 7 40 -14 86 l-24 54 62 59 c70 65
118 138 155 238 22 58 26 84 26 187 1 92 -3 133 -18 175 -34 100 -79 173 -153
248 l-73 73 20 39 c11 22 20 53 20 70 0 28 -29 70 -49 70 -5 0 -15 2 -23 4 -7
3 -23 1 -35 -4z"/>
<path d="M4636 2617 c-18 -18 -24 -39 -30 -99 -14 -155 -70 -274 -180 -383
-108 -106 -211 -153 -381 -174 -90 -11 -115 -30 -115 -85 1 -69 44 -89 166
-75 316 36 576 263 654 573 11 44 20 112 20 152 0 66 -2 74 -26 93 -35 28 -79
27 -108 -2z"/>
</g>
</svg>
