<svg width="1085" height="418" viewBox="0 0 1085 418" fill="none" xmlns="http://www.w3.org/2000/svg">
<path d="M27.7734 56.9375L43.5781 1.375H51.2344L46.8047 22.9766L29.7969 81H22.1953L27.7734 56.9375ZM11.4219 1.375L24 55.8438L27.7734 81H20.2266L0.921875 1.375H11.4219ZM71.6875 55.7891L83.9922 1.375H94.5469L75.2969 81H67.75L71.6875 55.7891ZM52.3828 1.375L67.75 56.9375L73.3281 81H65.7266L49.3203 22.9766L44.8359 1.375H52.3828ZM156.836 72.4141V81H114.672V72.4141H156.836ZM116.805 1.375V81H106.25V1.375H116.805ZM151.258 35.6094V44.1953H114.672V35.6094H151.258ZM156.289 1.375V10.0156H114.672V1.375H156.289ZM201.023 1.375H211.25L237.336 66.2891L263.367 1.375H273.648L241.273 81H233.289L201.023 1.375ZM197.688 1.375H206.711L208.188 49.9375V81H197.688V1.375ZM267.906 1.375H276.93V81H266.43V49.9375L267.906 1.375ZM325.93 8.42969L299.57 81H288.797L319.148 1.375H326.094L325.93 8.42969ZM348.023 81L321.609 8.42969L321.445 1.375H328.391L358.852 81H348.023ZM346.656 51.5234V60.1641H301.922V51.5234H346.656ZM380.07 1.375V81H369.516V1.375H380.07ZM428.141 1.375L395.055 38.5078L376.461 57.8125L374.711 46.5469L388.711 31.125L415.453 1.375H428.141ZM417.969 81L388.492 42.1719L394.781 33.8047L430.547 81H417.969ZM490.43 72.4141V81H448.266V72.4141H490.43ZM450.398 1.375V81H439.844V1.375H450.398ZM484.852 35.6094V44.1953H448.266V35.6094H484.852ZM489.883 1.375V10.0156H448.266V1.375H489.883ZM542.602 1.375V81H532.047V1.375H542.602ZM609.867 55.6797H620.367C619.82 60.7109 618.38 65.2135 616.047 69.1875C613.714 73.1615 610.414 76.3151 606.148 78.6484C601.883 80.9453 596.56 82.0938 590.18 82.0938C585.513 82.0938 581.266 81.2188 577.438 79.4688C573.646 77.7188 570.383 75.2396 567.648 72.0312C564.914 68.7865 562.799 64.9036 561.305 60.3828C559.846 55.8255 559.117 50.7578 559.117 45.1797V37.25C559.117 31.6719 559.846 26.6224 561.305 22.1016C562.799 17.5443 564.932 13.6432 567.703 10.3984C570.51 7.15365 573.883 4.65625 577.82 2.90625C581.758 1.15625 586.188 0.28125 591.109 0.28125C597.125 0.28125 602.211 1.41146 606.367 3.67188C610.523 5.93229 613.75 9.06771 616.047 13.0781C618.38 17.0521 619.82 21.6641 620.367 26.9141H609.867C609.357 23.1953 608.409 20.0052 607.023 17.3438C605.638 14.6458 603.669 12.5677 601.117 11.1094C598.565 9.65104 595.229 8.92188 591.109 8.92188C587.573 8.92188 584.456 9.59635 581.758 10.9453C579.096 12.2943 576.854 14.2083 575.031 16.6875C573.245 19.1667 571.896 22.138 570.984 25.6016C570.073 29.0651 569.617 32.9115 569.617 37.1406V45.1797C569.617 49.0807 570.018 52.7448 570.82 56.1719C571.659 59.599 572.917 62.6068 574.594 65.1953C576.271 67.7839 578.404 69.8255 580.992 71.3203C583.581 72.7786 586.643 73.5078 590.18 73.5078C594.664 73.5078 598.237 72.7969 600.898 71.375C603.56 69.9531 605.565 67.9115 606.914 65.25C608.299 62.5885 609.284 59.3984 609.867 55.6797ZM685.336 72.4141V81H643.172V72.4141H685.336ZM645.305 1.375V81H634.75V1.375H645.305ZM679.758 35.6094V44.1953H643.172V35.6094H679.758ZM684.789 1.375V10.0156H643.172V1.375H684.789ZM774.258 55.6797H784.758C784.211 60.7109 782.771 65.2135 780.438 69.1875C778.104 73.1615 774.805 76.3151 770.539 78.6484C766.273 80.9453 760.951 82.0938 754.57 82.0938C749.904 82.0938 745.656 81.2188 741.828 79.4688C738.036 77.7188 734.773 75.2396 732.039 72.0312C729.305 68.7865 727.19 64.9036 725.695 60.3828C724.237 55.8255 723.508 50.7578 723.508 45.1797V37.25C723.508 31.6719 724.237 26.6224 725.695 22.1016C727.19 17.5443 729.323 13.6432 732.094 10.3984C734.901 7.15365 738.273 4.65625 742.211 2.90625C746.148 1.15625 750.578 0.28125 755.5 0.28125C761.516 0.28125 766.602 1.41146 770.758 3.67188C774.914 5.93229 778.141 9.06771 780.438 13.0781C782.771 17.0521 784.211 21.6641 784.758 26.9141H774.258C773.747 23.1953 772.799 20.0052 771.414 17.3438C770.029 14.6458 768.06 12.5677 765.508 11.1094C762.956 9.65104 759.62 8.92188 755.5 8.92188C751.964 8.92188 748.846 9.59635 746.148 10.9453C743.487 12.2943 741.245 14.2083 739.422 16.6875C737.635 19.1667 736.286 22.138 735.375 25.6016C734.464 29.0651 734.008 32.9115 734.008 37.1406V45.1797C734.008 49.0807 734.409 52.7448 735.211 56.1719C736.049 59.599 737.307 62.6068 738.984 65.1953C740.661 67.7839 742.794 69.8255 745.383 71.3203C747.971 72.7786 751.034 73.5078 754.57 73.5078C759.055 73.5078 762.628 72.7969 765.289 71.375C767.951 69.9531 769.956 67.9115 771.305 65.25C772.69 62.5885 773.674 59.3984 774.258 55.6797ZM799.141 1.375H825.5C831.479 1.375 836.529 2.28646 840.648 4.10938C844.805 5.93229 847.958 8.63021 850.109 12.2031C852.297 15.7396 853.391 20.0964 853.391 25.2734C853.391 28.9193 852.643 32.2552 851.148 35.2812C849.69 38.2708 847.576 40.8229 844.805 42.9375C842.07 45.0156 838.789 46.5651 834.961 47.5859L832.008 48.7344H807.234L807.125 40.1484H825.828C829.62 40.1484 832.773 39.4922 835.289 38.1797C837.805 36.8307 839.701 35.026 840.977 32.7656C842.253 30.5052 842.891 28.0078 842.891 25.2734C842.891 22.2109 842.289 19.5312 841.086 17.2344C839.883 14.9375 837.987 13.1693 835.398 11.9297C832.846 10.6536 829.547 10.0156 825.5 10.0156H809.695V81H799.141V1.375ZM845.68 81L826.32 44.9062L837.312 44.8516L856.945 80.3438V81H845.68ZM918.742 72.4141V81H876.578V72.4141H918.742ZM878.711 1.375V81H868.156V1.375H878.711ZM913.164 35.6094V44.1953H876.578V35.6094H913.164ZM918.195 1.375V10.0156H876.578V1.375H918.195ZM961.289 8.42969L934.93 81H924.156L954.508 1.375H961.453L961.289 8.42969ZM983.383 81L956.969 8.42969L956.805 1.375H963.75L994.211 81H983.383ZM982.016 51.5234V60.1641H937.281V51.5234H982.016ZM1008.21 1.375H1018.44L1044.52 66.2891L1070.55 1.375H1080.84L1048.46 81H1040.48L1008.21 1.375ZM1004.88 1.375H1013.9L1015.38 49.9375V81H1004.88V1.375ZM1075.09 1.375H1084.12V81H1073.62V49.9375L1075.09 1.375ZM52.2734 169.375V249H41.8828V169.375H52.2734ZM77.8672 169.375V178.016H16.3438V169.375H77.8672ZM141.688 203.609V212.195H98.5938V203.609H141.688ZM100.234 169.375V249H89.6797V169.375H100.234ZM150.875 169.375V249H140.375V169.375H150.875ZM220.219 240.414V249H178.055V240.414H220.219ZM180.188 169.375V249H169.633V169.375H180.188ZM214.641 203.609V212.195H178.055V203.609H214.641ZM219.672 169.375V178.016H178.055V169.375H219.672ZM282.016 224.938L297.82 169.375H305.477L301.047 190.977L284.039 249H276.438L282.016 224.938ZM265.664 169.375L278.242 223.844L282.016 249H274.469L255.164 169.375H265.664ZM325.93 223.789L338.234 169.375H348.789L329.539 249H321.992L325.93 223.789ZM306.625 169.375L321.992 224.938L327.57 249H319.969L303.562 190.977L299.078 169.375H306.625ZM387.562 176.43L361.203 249H350.43L380.781 169.375H387.727L387.562 176.43ZM409.656 249L383.242 176.43L383.078 169.375H390.023L420.484 249H409.656ZM408.289 219.523V228.164H363.555V219.523H408.289ZM429.672 169.375L450.344 209.352L471.07 169.375H483.047L455.594 219.25V249H445.039V219.25L417.586 169.375H429.672ZM532.375 169.375V249H521.82V169.375H532.375ZM579.352 169.375V249H568.961V169.375H579.352ZM604.945 169.375V178.016H543.422V169.375H604.945ZM687.906 169.375H698.406V223.242C698.406 229.221 697.076 234.198 694.414 238.172C691.753 242.146 688.216 245.135 683.805 247.141C679.43 249.109 674.672 250.094 669.531 250.094C664.135 250.094 659.25 249.109 654.875 247.141C650.536 245.135 647.091 242.146 644.539 238.172C642.023 234.198 640.766 229.221 640.766 223.242V169.375H651.211V223.242C651.211 227.398 651.977 230.826 653.508 233.523C655.039 236.221 657.172 238.227 659.906 239.539C662.677 240.852 665.885 241.508 669.531 241.508C673.214 241.508 676.422 240.852 679.156 239.539C681.927 238.227 684.078 236.221 685.609 233.523C687.141 230.826 687.906 227.398 687.906 223.242V169.375ZM757.414 228.875C757.414 227.016 757.122 225.375 756.539 223.953C755.992 222.495 755.008 221.182 753.586 220.016C752.201 218.849 750.268 217.737 747.789 216.68C745.346 215.622 742.247 214.547 738.492 213.453C734.555 212.286 731 210.992 727.828 209.57C724.656 208.112 721.94 206.453 719.68 204.594C717.419 202.734 715.688 200.602 714.484 198.195C713.281 195.789 712.68 193.036 712.68 189.938C712.68 186.839 713.318 183.977 714.594 181.352C715.87 178.727 717.693 176.448 720.062 174.516C722.469 172.547 725.331 171.016 728.648 169.922C731.966 168.828 735.667 168.281 739.75 168.281C745.729 168.281 750.797 169.43 754.953 171.727C759.146 173.987 762.336 176.958 764.523 180.641C766.711 184.286 767.805 188.188 767.805 192.344H757.305C757.305 189.354 756.667 186.711 755.391 184.414C754.115 182.081 752.182 180.258 749.594 178.945C747.005 177.596 743.724 176.922 739.75 176.922C735.995 176.922 732.896 177.487 730.453 178.617C728.01 179.747 726.188 181.279 724.984 183.211C723.818 185.143 723.234 187.349 723.234 189.828C723.234 191.505 723.581 193.036 724.273 194.422C725.003 195.771 726.115 197.029 727.609 198.195C729.141 199.362 731.073 200.438 733.406 201.422C735.776 202.406 738.602 203.354 741.883 204.266C746.404 205.542 750.305 206.964 753.586 208.531C756.867 210.099 759.565 211.867 761.68 213.836C763.831 215.768 765.417 217.974 766.438 220.453C767.495 222.896 768.023 225.667 768.023 228.766C768.023 232.01 767.367 234.945 766.055 237.57C764.742 240.195 762.865 242.438 760.422 244.297C757.979 246.156 755.044 247.596 751.617 248.617C748.227 249.602 744.435 250.094 740.242 250.094C736.56 250.094 732.932 249.583 729.359 248.562C725.823 247.542 722.596 246.01 719.68 243.969C716.799 241.927 714.484 239.411 712.734 236.422C711.021 233.396 710.164 229.896 710.164 225.922H720.664C720.664 228.656 721.193 231.008 722.25 232.977C723.307 234.909 724.747 236.513 726.57 237.789C728.43 239.065 730.526 240.013 732.859 240.633C735.229 241.216 737.69 241.508 740.242 241.508C743.924 241.508 747.042 240.997 749.594 239.977C752.146 238.956 754.078 237.497 755.391 235.602C756.74 233.706 757.414 231.464 757.414 228.875ZM832.062 240.414V249H789.898V240.414H832.062ZM792.031 169.375V249H781.477V169.375H792.031ZM826.484 203.609V212.195H789.898V203.609H826.484ZM831.516 169.375V178.016H789.898V169.375H831.516ZM866.68 249H850.055L850.164 240.414H866.68C872.367 240.414 877.107 239.229 880.898 236.859C884.69 234.453 887.534 231.099 889.43 226.797C891.362 222.458 892.328 217.391 892.328 211.594V206.727C892.328 202.169 891.781 198.122 890.688 194.586C889.594 191.013 887.99 188.005 885.875 185.562C883.76 183.083 881.172 181.206 878.109 179.93C875.083 178.654 871.602 178.016 867.664 178.016H849.727V169.375H867.664C872.878 169.375 877.635 170.25 881.938 172C886.24 173.714 889.94 176.211 893.039 179.492C896.174 182.737 898.581 186.674 900.258 191.305C901.935 195.898 902.773 201.076 902.773 206.836V211.594C902.773 217.354 901.935 222.549 900.258 227.18C898.581 231.773 896.156 235.693 892.984 238.938C889.849 242.182 886.057 244.68 881.609 246.43C877.198 248.143 872.221 249 866.68 249ZM855.688 169.375V249H845.133V169.375H855.688ZM973.648 169.375V249H963.258V169.375H973.648ZM999.242 169.375V178.016H937.719V169.375H999.242ZM1070.83 206.672V211.703C1070.83 217.682 1070.08 223.042 1068.59 227.781C1067.09 232.521 1064.94 236.549 1062.13 239.867C1059.33 243.185 1055.95 245.719 1052.02 247.469C1048.11 249.219 1043.74 250.094 1038.89 250.094C1034.19 250.094 1029.87 249.219 1025.93 247.469C1022.03 245.719 1018.64 243.185 1015.76 239.867C1012.91 236.549 1010.71 232.521 1009.14 227.781C1007.57 223.042 1006.79 217.682 1006.79 211.703V206.672C1006.79 200.693 1007.55 195.352 1009.09 190.648C1010.65 185.909 1012.86 181.88 1015.7 178.562C1018.55 175.208 1021.92 172.656 1025.82 170.906C1029.76 169.156 1034.08 168.281 1038.78 168.281C1043.63 168.281 1048.01 169.156 1051.91 170.906C1055.84 172.656 1059.22 175.208 1062.02 178.562C1064.87 181.88 1067.04 185.909 1068.53 190.648C1070.06 195.352 1070.83 200.693 1070.83 206.672ZM1060.38 211.703V206.562C1060.38 201.823 1059.89 197.63 1058.91 193.984C1057.96 190.339 1056.55 187.276 1054.7 184.797C1052.84 182.318 1050.56 180.44 1047.86 179.164C1045.2 177.888 1042.17 177.25 1038.78 177.25C1035.5 177.25 1032.53 177.888 1029.87 179.164C1027.24 180.44 1024.98 182.318 1023.09 184.797C1021.23 187.276 1019.79 190.339 1018.77 193.984C1017.74 197.63 1017.23 201.823 1017.23 206.562V211.703C1017.23 216.479 1017.74 220.708 1018.77 224.391C1019.79 228.036 1021.24 231.117 1023.14 233.633C1025.07 236.112 1027.35 237.99 1029.98 239.266C1032.64 240.542 1035.61 241.18 1038.89 241.18C1042.32 241.18 1045.36 240.542 1048.02 239.266C1050.68 237.99 1052.93 236.112 1054.75 233.633C1056.61 231.117 1058.01 228.036 1058.96 224.391C1059.91 220.708 1060.38 216.479 1060.38 211.703ZM501.641 379.758H481.461L481.352 371.281H499.672C502.698 371.281 505.341 370.771 507.602 369.75C509.862 368.729 511.612 367.271 512.852 365.375C514.128 363.443 514.766 361.146 514.766 358.484C514.766 355.568 514.201 353.198 513.07 351.375C511.977 349.516 510.281 348.167 507.984 347.328C505.724 346.453 502.844 346.016 499.344 346.016H483.812V417H473.258V337.375H499.344C503.427 337.375 507.073 337.794 510.281 338.633C513.49 339.435 516.206 340.711 518.43 342.461C520.69 344.174 522.404 346.362 523.57 349.023C524.737 351.685 525.32 354.875 525.32 358.594C525.32 361.875 524.482 364.846 522.805 367.508C521.128 370.133 518.794 372.284 515.805 373.961C512.852 375.638 509.388 376.714 505.414 377.188L501.641 379.758ZM501.148 417H477.305L483.266 408.414H501.148C504.503 408.414 507.346 407.831 509.68 406.664C512.049 405.497 513.854 403.857 515.094 401.742C516.333 399.591 516.953 397.057 516.953 394.141C516.953 391.188 516.424 388.635 515.367 386.484C514.31 384.333 512.651 382.674 510.391 381.508C508.13 380.341 505.214 379.758 501.641 379.758H486.602L486.711 371.281H507.273L509.516 374.344C513.344 374.672 516.589 375.766 519.25 377.625C521.911 379.448 523.935 381.781 525.32 384.625C526.742 387.469 527.453 390.604 527.453 394.031C527.453 398.99 526.359 403.182 524.172 406.609C522.021 410 518.977 412.589 515.039 414.375C511.102 416.125 506.471 417 501.148 417ZM593.625 408.414V417H551.461V408.414H593.625ZM553.594 337.375V417H543.039V337.375H553.594ZM588.047 371.609V380.195H551.461V371.609H588.047ZM593.078 337.375V346.016H551.461V337.375H593.078ZM605.328 411.641C605.328 409.927 605.857 408.487 606.914 407.32C608.008 406.117 609.576 405.516 611.617 405.516C613.659 405.516 615.208 406.117 616.266 407.32C617.359 408.487 617.906 409.927 617.906 411.641C617.906 413.318 617.359 414.74 616.266 415.906C615.208 417.073 613.659 417.656 611.617 417.656C609.576 417.656 608.008 417.073 606.914 415.906C605.857 414.74 605.328 413.318 605.328 411.641Z" fill="#ECE9E9"/>
</svg>
